<svg xmlns="http://www.w3.org/2000/svg" viewBox="0 0 60 60" width="60" height="60">
  <defs>
    <linearGradient id="bgGrad" x1="0%" y1="0%" x2="100%" y2="100%">
      <stop offset="0%" style="stop-color:#1a5f7a;stop-opacity:1" />
      <stop offset="100%" style="stop-color:#0d3d4d;stop-opacity:1" />
    </linearGradient>
    <linearGradient id="accentGrad" x1="0%" y1="0%" x2="100%" y2="100%">
      <stop offset="0%" style="stop-color:#57c4e5;stop-opacity:1" />
      <stop offset="100%" style="stop-color:#2d9cbe;stop-opacity:1" />
    </linearGradient>
  </defs>
  
  <!-- Background rounded square -->
  <rect x="2" y="2" width="56" height="56" rx="12" ry="12" fill="url(#bgGrad)"/>
  
  <!-- Stylized "G" representing GTreasury -->
  <path d="M30 12 C18 12 10 22 10 30 C10 38 18 48 30 48 C38 48 44 44 46 38 L38 38 C36 42 34 44 30 44 C22 44 16 38 16 30 C16 22 22 16 30 16 C34 16 38 18 40 22 L32 22 L32 28 L48 28 L48 18 C44 14 38 12 30 12 Z" fill="url(#accentGrad)"/>
  
  <!-- Dollar sign accent -->
  <path d="M30 32 L30 36 M30 24 L30 28" stroke="#ffffff" stroke-width="2" stroke-linecap="round" opacity="0.8"/>
  
  <!-- Small chart bars representing analytics -->
  <rect x="42" y="40" width="4" height="6" rx="1" fill="#ffffff" opacity="0.6"/>
  <rect x="48" y="36" width="4" height="10" rx="1" fill="#ffffff" opacity="0.8"/>
  
  <!-- Connection dots representing integration -->
  <circle cx="8" cy="30" r="2" fill="#57c4e5" opacity="0.7"/>
  <circle cx="52" cy="30" r="2" fill="#57c4e5" opacity="0.7"/>
</svg>
